<?xml version="1.0" encoding="utf-8"?>
<!-- Generator: Adobe Illustrator 24.0.0, SVG Export Plug-In . SVG Version: 6.00 Build 0)  -->
<svg version="1.1" id="Layer_1" xmlns="http://www.w3.org/2000/svg" xmlns:xlink="http://www.w3.org/1999/xlink" x="0px" y="0px"
	 viewBox="0 0 176 99" style="enable-background:new 0 0 176 99;" xml:space="preserve">
<style type="text/css">
	.st0{fill:#DCD8D0;}
	.st1{fill:#280E13;}
	.st2{fill:#2B0F03;}
	.st3{fill:#E2E2E2;}
	.st4{fill:#F4F0EC;}
	.st5{fill:#E5E5E5;}
	.st6{fill:#CCCCCC;}
	.st7{fill:#B7B7B7;}
	.st8{fill:#EDBD24;}
	.st9{fill:#D52028;}
	.st10{fill:#9A1C23;}
	.st11{fill:#7F141D;}
	.st12{fill:#FFFFFF;}
	.st13{fill:#ED6224;}
</style>
<g id="cook" transform="translate(0.169595, 0.888889)">
	<path class="st0" d="M72.3,14.8c-7.3-8.3,2.6-0.9,4.6-5.6c1.2-2.9-1.2-8.7-8.4-8.7c-2.4,0-3.4,3.2-3.9,3.2c-2.3,0-9.1-7.3-18,3.3
		c-4.7,5.7-3.1,9.3-3.1,9.3s-7,7.6,1.4,6.8s8,0.7,11.1-1.4C58.9,19.6,72.3,14.8,72.3,14.8z"/>
	<path id="Path_7_" class="st1" d="M74.6,13.9c0,0,2.3-0.2,4.7,3c2.3,3.2-0.8,5-0.8,5h-0.1l2.4-0.4c0,0,1.6-2.1-1-5.2
		C77,13.2,74.6,13.9,74.6,13.9z"/>
	<path id="Path_8_" class="st2" d="M61.7,18.3c-1.4,0.5-5.1,2.2-6.1,3.2c-1,0.9-1.4,0.8-1.3-0.3c0.1-1.2,0.2-3.4-0.4-3.7
		c-0.6-0.3-0.6,0.5-0.6,0.5c0.2,5-5.9,3-5.9,3c1.2-1,2-3,1.8-5.1c0,0-5.1-8.5-23.4-8.5c-17.4,0-18.4,4-18.4,4
		c-5,11.2,7.1,18.2,7.1,18.2c-5.3,3.9,1,8.7,1,8.7c6.5,6,10.7,2,12.2,1.8c1.8-0.2,3.3-0.9,3.3-0.9c1.4,3.5,10,10.4,10,10.4
		c-5.4,0.2-4.1,1.8-6.5,1.9c-2.5,0.2-5.2-2-5.2-2c-1.2,4.5,3.9,11.2,3.9,11.2c3,5.9-2.4,2.8-6.3,10.3c-3.8,7.4,0.6,12.4,0.6,12.4
		s-0.8-0.6-4.7-4c-3.9-3.5-10.9-0.2-10.9-0.2C4.4,82-0.2,79.3-0.2,79.3c6.6,3.8,10.8,0.3,16.8-0.5s7.5,7.7,15.5,9.9
		c8.9,2.5,16-5.6,18.9-7.6c3-2,9.2-3.8,12.5,0.4c3.4,4.2-0.7,9.2-4.2,7.4c-3.4-1.8-0.2-4.9-0.2-4.9c-3.8-2.3-9.7-0.3-8.9,5.4
		c0.8,5.7,5.5,9.4,12.7,7.7c7.3-1.7,8.5-8.1,8.5-8.1c1.5,2.1,10.8,7.3,20.7,1.9c9.8-5.5,6.2-19.4,6.2-19.4s13.9-11,4.7-25.4
		c0,0,5.6-1.5,4.9-4.7c0,0,9.2-4.8,3.9-10.2c0,0,1.9-2.5,1.4-5.9s-4.1-5.4-9.2-2.7c0,0,3.8-6.3,1.8-10.9s-8.9-7-11.2-3.3
		c-2.2,3.5,3.3,11.6-3.8,18c0,0-2.2-4.9-6.6-5.1c-4.4-0.3-7.5,1.6-10.3-5.1C74,16.3,67.2,16.4,61.7,18.3z"/>
	<path id="Path_9_" class="st3" d="M74.5,53.1c0,0,0.9-4.7,6.2-6.7c5.3-2,9.3-7.6,9.7-10.4c0.4-2.8,1.6-7.8-3.3-12.4l-18.8,9.7
		l-14.4,4.5c0,0-0.4,0.2-0.5,0.3c-0.1,0,3,8.8,3,8.8l6.2,3.3l6.3,0.7l3.3,0.3h1.7C73.9,51.3,74.4,52,74.5,53.1z"/>
	<path id="Path_10_" class="st4" d="M71,13.2c-4.1-0.3-14.3,8.1-14.3,8.1c-2.1,2-2.1,2.1-3.6,1.8c0,0-0.7,1.6,1.3,2.8
		c2.1,1.1,0.9,2-0.5,1.2c0,0-3.4-2.4-4.8,1.7c-1.4,4,1.1,7.3,2.4,7.5c1.2,0.2,1.9,0.3,2.6-0.6c0.7-0.8,0.4-2.5-1.6-2.6
		c0,0,2.5-0.8,3.2,0.9s-0.2,3.3-1.8,4.1c0,0,7.3,9.8,19.5,6.6c12.1-3.2,20-10.9,14.5-20.4c0,0-1.5-2.3-5.9-1.9c0,0-4.9,1.9-7.3-3.5
		C74.7,18.9,73.7,12.9,71,13.2"/>
	<path id="Path_11_" class="st5" d="M79.3,47.9c-2.3,0.9,4.6-0.1,4.6-0.1c3.3-4.3,9-4.7,9-4.7c-3.3-5.1-0.1-5.2-0.1-5.2
		c-0.1-3.3,1.5-4.3,1.5-4.3s2.9-1.8,0.7,1c-2.3,2.9-0.9,4.6-0.9,4.6c-2.3,0-3,3.6,3.3,5c6.3,1.5,9.7-3.6,9.1-3.7
		c-0.7-0.1-1.2-0.1-1.2-0.1c4.5-1.2,6.7-4.9,6.4-7.2c-0.3-2.3-2.3-2.1-2.3-2.1c4.4-3.1,1.6-7,1.6-7c-3.1-4.6-8.4-0.7-8.4-0.7
		c1.6-2.4,1.8-8.4,1.3-11.1c-0.5-2.8-4.8-5.5-6.6-4.6c-1.8,0.9-2.1,0.4-1.8,9c0.2,5.8-2.9,8.6-4.9,9.8C90.5,26.7,97,40.8,79.3,47.9z
		"/>
	<path id="Path_12_" class="st4" d="M26.5,75.1c-0.8,4,0.4,10.2,6.2,10.3c5.8,0.1,8-2.3,12.1-8.1c4.1-5.8,10-7.1,10-7.1
		c-13.1-0.9-20.3-7.4-20.3-7.4s-0.1,2.6-2.8,3.8C28.5,67.8,27.1,72,26.5,75.1z"/>
	<path id="Path_13_" class="st4" d="M59.4,70.1c0,0,10.8-3.5,13.3,1.6s2.9,7.7,4.7,9.1c0,0-4.1-2.1-6.5-4.6
		C68.4,73.9,66.3,70.4,59.4,70.1z"/>
	<path id="Path_14_" class="st4" d="M80,59.4c0,0,1.5-15.9,15.4-14.6c13.8,1.2,7.1,21.6,1.6,24.8c0,0-3.1-8.4-11.5-8.8
		c-8.4-0.4-11.9,5-11.9,5s-1-18.4,9.1-16.5C82.6,49.2,79.4,55.3,80,59.4z"/>
	<path id="Path_15_" class="st5" d="M95.4,44.7c-0.8-0.1-1.6-0.1-2.4,0c3.4,3,7.4,9.3,1,20.2c2.1,2.3,3,4.6,3,4.6
		C102.4,66.4,109.2,46,95.4,44.7z"/>
	<path id="Path_16_" class="st4" d="M93.9,23.3c1-1.5,1.6-3.6,1.5-6.4c-0.3-8.6,0-8.1,1.8-9s6.1,1.8,6.6,4.6s0.3,8.1-1.9,11.2
		c0,0-3.9,6.3-7.1,5.7c0,0-3.3-0.3-2.3-3.4C92.4,25.9,92.5,25.5,93.9,23.3z"/>
	<path id="Path_17_" class="st4" d="M101.1,27.6c0,0,1-5.1,5.2-3.2c4.2,1.8,1.9,6.8-0.7,8.5c-2.6,1.8-5.2,5.2-8.5,2.9
		c-3.2-2.4,2.4-5.8,2.4-5.8S100.5,29.8,101.1,27.6z"/>
	<path id="Path_18_" class="st1" d="M46.6,6.9c0,0,3.1-6.5,9.4-7.2s7,2.8,7,2.8S63.4,4,61.1,3C58.9,2,54.4-1.1,46.6,6.9z"/>
	<path id="Path_19_" class="st1" d="M73.6,15.4c-2.6-4.7-4.6-1-4.6-1s-0.4-2.4,0.5-3.3c1-0.8-0.2-2.5-0.2-2.5
		c1.1,0.8,7.6,3.7,6.7-2.8s-7.5-5.4-7.5-5.4s5.1-2.2,8.6,3.6c3.5,5.7-1.3,8.2-5.8,6.4c0,0,0.2,0.6,0.9,0.7c0.6,0.1,1.9,0.4,1.7,2.3
		L73.6,15.4z"/>
	<path id="Path_20_" class="st1" d="M66.1,15.8c0,0-0.7-3-2.5-1.1c-1.7,1.9-1.2,4.1,0.7,6.3C64.3,21,63.1,16,66.1,15.8z"/>
	<path id="Path_21_" class="st6" d="M63.1,31.9c0,0,7.7-8.9,20.3-7.7C83.4,24.2,71.7,24,63.1,31.9z"/>
	<path id="Path_22_" class="st7" d="M30,51.7c0,0-0.4,8.3,12.1,14c12.6,5.7,17,2.8,20.9,2.1c0,0,4.2-1.1,6.6,0.4s3.2-2.1,2.9-5.3
		c-0.3-3.2,0.7-6.2,2-9.7l-0.6-2l-15.7-2.8l-2.7-5.6c0,0,0.1-6.6-15.1-8.5c0,0,2,6.9-1.5,12.1l5.1,3.1c0,0-3.3-0.6-6.7,0.1
		C33.9,50.5,34.5,52.9,30,51.7z"/>
	<path id="Path_23_" class="st8" d="M40.6,34.6c0,0,0.3,4.8,0,7.5s1.1,3,2.5,4c0,0,2.5,0.5,2.3,2.9c-0.1,0.9-3.3,0-2.9,0.1
		c0,0-7.3-1.3-9.2,4.4s10.6,11.6,10.6,11.6s6.4,3.7,14.8,2.2c0,0,4.7-1.3,7.2-1.3s2.8-2.1,2.8-2.1s2.6-6.4,4.3-7.9l1.2-5.4h-7.7
		l-4.8-1.3l-1.8-1.1l-0.6-0.8c0,0,0.5-2.3-1.3-0.6C58,46.8,55.4,34.9,40.6,34.6z"/>
	<ellipse id="Oval_3_" cx="66.5" cy="55.7" rx="1.2" ry="1.4"/>
	<path id="Path_24_" class="st4" d="M20.5,34.9c0,0-1.8-4.3-5-3.9s-2.5,4.2-0.7,5.4c1.7,1.2,3.3,3.9,7.1,3.7s5.6-2.2,7.5-2.3
		c0,0,0.9-0.3,1.8,0.7c0.8,0.9,5.1,7.3,8.3,7.5c0,0,3.3-3.6,1.3-10c0,0-1.3-0.1-2.5-1c-1.2-1-1.3-2.3-2.9-1.7c0,0-4.8,2.8-13.7,1
		C21.5,34.1,21.4,35.7,20.5,34.9z"/>
	<path id="Path_25_" class="st4" d="M76.6,77.7c0,0,1.2,2.8,4,3.3c2.8,0.6,5.4-0.2,6.7-4.2c1.2-4.1-2.3-7.4-5-5.4
		c-2.7,1.9,0.3,4.4,0.3,4.4S81.8,78.6,76.6,77.7z"/>
	<path id="Path_26_" class="st1" d="M70.7,44.8c0,0-1.1,0.2-2.1,0s-1.5,0.8-0.1,1.2c1.4,0.5,1.7,0.5,2.3,0.4
		C70.8,46.4,73.1,44.7,70.7,44.8z"/>
	<path id="Path_27_" class="st9" d="M62.7,46.3c0,0-2-0.8-2.5,3s0.8,4.2,2.7,3.8c1.9-0.3,2.8-2.4,3.6-1.5c0,0-0.5,2.2,2,2
		c2.1-0.2,1.3-2.4,1.3-2.4s0.2,2.8,3.3,2.2c3.1-0.7,0.4-5.6-0.8-5.4c-1.1,0.2-1,1.2-2.7,2.1c0,0-0.4-1.3-2.6-0.5
		C67,49.6,65.7,46.9,62.7,46.3z"/>
	<path id="Path_28_" class="st10" d="M62.7,52.4c-1.9-0.3-1.2-2.4-1.1-4.3c0.1-1.1,0.9-1.5,1.7-1.6c-0.2-0.1-0.4-0.1-0.6-0.2
		c0,0-2-0.8-2.5,3s0.8,4.2,2.7,3.8c0.6-0.1,1-0.3,1.4-0.6C63.9,52.5,63.4,52.5,62.7,52.4z"/>
	<path id="Path_29_" class="st11" d="M69.4,51.2c0-0.4,0.5,0.5,0.6,0.9c0-0.1-0.1-0.2-0.1-0.2c0.1,0.7-0.1,1.6-1.4,1.8
		c-0.7,0.1-1.2-0.1-1.5-0.3c0.5,0,1.5,0,1.9-0.4C68.9,52.9,69.4,52.4,69.4,51.2z"/>
	<path id="Path_30_" class="st4" d="M11.7,9.4c0,0-4.9,1.5-0.2,3.9s16.4,5,27.4,2.8c0,0-15,6-31.2-2.5c0,0-4.4,7,6.4,14.3
		s20.6,3.4,20.6,3.4s4-0.6,9.4-9.3c0,0-3.2,3.5-4.6,4.2c-1.4,0.8,14.4-11.1-0.3-16C24.6,5.4,11.7,9.4,11.7,9.4z"/>
	
		<ellipse id="Oval_4_" transform="matrix(3.890668e-02 -0.9992 0.9992 3.890668e-02 12.229 41.7884)" class="st0" cx="27.8" cy="14.5" rx="2.1" ry="12.3"/>
	<path id="Path_31_" class="st0" d="M41.1,25.1c-0.6,0.5-1.2,1-1.6,1.2c-0.2,0.1-0.1,0,0.3-0.3c-9.5,5.8-20.1,1.1-25.1-2.3
		c-4.5-3.1-3.7-6.6-3-8.2c-1.3-0.5-2.7-1.1-4-1.8c0,0-4.4,7,6.4,14.3s20.6,3.4,20.6,3.4s3.7-0.5,8.8-8.3
		C42.7,23.8,41.9,24.5,41.1,25.1z"/>
	<path id="Path_32_" class="st1" d="M70.4,26.8c0.5,0.5,1.4-0.8,1.4-1.9s-0.6-2-1.3-2C70.6,22.9,67.8,23.7,70.4,26.8z"/>
	<path id="Path_33_" d="M71.2,25.1c0,0.5-0.2,1-0.5,1s-0.6-0.4-0.6-0.9s0.2-1,0.5-1C70.9,24.1,71.2,24.5,71.2,25.1z"/>
	<path id="Path_34_" class="st1" d="M76.4,23.3c0.2,1-0.4,1.7-0.9,2.1s-1.3-0.6-1.5-1.6s0.2-1.9,0.9-2.1
		C75.5,21.5,76.2,22.3,76.4,23.3z"/>
	<ellipse id="Oval_5_" cx="75.1" cy="23.5" rx="1" ry="1"/>
	<path id="Path_35_" class="st4" d="M90.1,89.7c8.5-3.8,7.7-15.3,4.8-20.9c-2.9-5.6-8.4-6.1-8.4-6.1c-5.6-0.8-12.1,1.4-12.1,8.4
		c0,0,0.6,6.7,6.3,4.5c0,0-2.8-5.6,2.6-6.3c5.7-0.8,7.2,7.5,4.2,10.7c-7,7.6-14,1.2-14,1.2s-6.3-5.7-7.6-6.7c-1.3-1-10.7-6-18.5,2.9
		c-7.8,8.8-8.4,8.4-13.3,9.4c0,0,6,1.3,11.8-3.9c5.7-5.2,10.5-6.3,13.2-5.7c6.5,1.6,8.9,8.9,4,12.2c-4.9,3.3-9.5-2.4-5.6-5.4
		c0,0-5.5-1.7-6.6,3.6c-1.1,5.3,6.5,9.1,6.8,8.5c0,0,4.9,1.1,8.6-2.4c1.6-1.5,2.9-3.8,3.6-7.4C69.8,86.1,77.8,95.1,90.1,89.7z"/>
	<path id="Path_36_" class="st1" d="M49.4,4.1c0,0,2.7-4.3,7.7-4.4c5-0.2,5.4,2.2,5.4,2.2S62.7,3,61,2.1C59.2,1.3,55.8-1,49.4,4.1z"
		/>
	<path id="Path_37_" d="M75.5,3c0,0,2,4,0.5,6.3C76.1,9.3,79.9,8.9,75.5,3z"/>
	<path id="Path_38_" d="M65.1,15.1c0,0-0.5-0.9-1.6,0.1c-1.1,1.1-1,2.4-0.4,3.9C63.1,19.1,63,15.1,65.1,15.1z"/>
	<path id="Path_39_" d="M69.7,12.6c0,0-0.1-1,0.4-1.3c0.4-0.3,0.2-1.2,0.2-1.2l0.5,0.1c0,0-0.3,0.6,1.2,1.3c1.5,0.8,1.1,0.4,1.1,1.5
		C73.1,13,71.4,11.6,69.7,12.6z"/>
	
		<ellipse id="Oval_6_" transform="matrix(2.639488e-02 -0.9997 0.9997 2.639488e-02 89.3244 197.3988)" class="st12" cx="146" cy="52.8" rx="1.3" ry="1.1"/>
	<path class="st12" d="M40.6,42.2c-0.3,2.8,1.1,3.1,2.5,4.1c0,0,1.9,0.9,2.3,3c0-2.5-2.3-3.8-2.3-3.8s-2.4-0.8-1.8-3
		c0.5-2-0.4-7.3-0.4-7.3c5-0.2,10.8,2.5,13,4.3c-2.8-2.8-8.2-5-14.1-5.1C39.8,34.5,40.9,39.5,40.6,42.2z"/>
	<path class="st12" d="M41.1,62.7c-1.2-0.6-8.6-5.3-7-9.3c1.6-4,7-4.1,9.5-3.8c0.4,0,1.1,0.1,1.4,0.1c-0.2,0-0.4-0.1-0.6-0.2
		c2,0.6-8.9-2.8-11.3,3.6C31,58.7,43.9,65,43.9,65s6.4,3.7,14.8,2.2c0,0,0.2-0.1,0.5-0.1C47.4,68.3,42.2,63.2,41.1,62.7z"/>
</g>
<g id="lettering" transform="translate(103.505989, 38.209755)">
	<path id="Path_2_" class="st2" d="M2.4,19.2c2.5,3.8,7.1,5.9,7.1,5.9c4.6,1.9-6.6,4.3-2.9,10.6c3.8,6.6,11.4,1.8,11.4,1.8
		c3.6,5.5,6,4.7,6,4.7c5.6-0.3,6.1-5.4,6.1-5.4l1.8-0.8c3.2,5.6,7.8,3.7,7.8,3.7c1.8,3.8,4.8,3.8,4.8,3.8c-0.1,8.3,2.6,9.9,2.6,9.9
		s7,4.8,12.5-2.7S59,40.1,59,40.1c2.7-1.5,4.4-2.5,5.2-5.6c0.8-3.1-4-4.9-4-4.9c1.2-2.9,1.6-5,1.6-5c8.8,0,6.6-8.2,6.6-8.2
		C70.8,13.2,72,9,72,9c2.5-10.4-5.2-8.3-10.2-8.5s-7.1,0-11.7,0.7c0,0-4.5,0.7-6.4,3.1c-2,2.4-0.3,4.7-2.1,6.3
		c-1.8,1.7-1.5,0.8-2.6,2.4c0,0-8.5-10.3-15.8-3.9c0,0-9-8.3-16-4.7C0.3,7.9-1.5,13.4,2.4,19.2z"/>
	<path id="Shape" class="st13" d="M49.9,25.7c-0.9-1.7-3.4,1.2-3.4,1.2c0.9-2.7,1.3-7.8,1.4-7.9c0.2-1.3,0.6-7.2-3.3-7.4
		c-4.4-0.2-4.5,6-4.5,6c-8.9-14.9-17-7.1-17-7.1c-11-10.4-17.8-4-17.8-4c-10.6,8.9,4,16.8,5.1,17.4c1.2,0.6,3.5,2.3-0.6,5.2
		s-1.1,7.2,1.9,8.1s6.7-1.9,6.7-1.9s1.9,5.3,6.5,4.9c4.6-0.3,3.8-4.8,3.8-4.8l4.5-2.4c0,1.2-0.1,4.5,4.2,5.1s4.2-4,4.4-4
		c1.8,0.1,2.2,0.5,5.3-2C50.1,29.7,50.8,27.4,49.9,25.7z M26.3,28.9c-1.8,2.5-2.5,2.3-3,2.2c-0.5-0.1-0.6-0.3-0.3-0.9
		c0.4-0.8,2.3-2.5,2.7-5.3c0,0,0.2-0.9,0.7-0.2C27,25.6,28.2,26.4,26.3,28.9z M40.1,29.4l-1.8-0.8c1.7-1.7,1.4-4.3,1.4-4.3l0.7,0.1
		L40.1,29.4z"/>
	
		<ellipse id="Oval" transform="matrix(2.559717e-02 -0.9997 0.9997 2.559717e-02 -5.8669 18.0608)" class="st12" cx="6.3" cy="12" rx="1.5" ry="1.2"/>
	
		<ellipse id="Oval_1_" transform="matrix(2.629518e-02 -0.9997 0.9997 2.629518e-02 8.9539 40.7344)" class="st12" cx="25.4" cy="15.8" rx="1.5" ry="1.3"/>
	<path id="Path_3_" class="st12" d="M7.5,9.2c0,0,1.6-2.8,4.5-0.9c2.8,1.8,2.9,2.8,2.9,2.8s0.3,1.6-1.4,1.3s-2.7-2.5-4.1-1.8
		C8.1,11.2,6.9,10.6,7.5,9.2z"/>
	<path id="Path_4_" class="st12" d="M26.7,12.9c0,0,1.5-2.8,4.5-1.1c2.9,1.7,2.9,2.7,2.9,2.7s0.4,1.6-1.3,1.4
		c-1.7-0.3-2.8-2.4-4.1-1.7S26.1,14.4,26.7,12.9z"/>
	<path id="Path_5_" class="st12" d="M26.8,9.4c0,0,3-1.6,7.4,2.3c0,0-2.2,0.4-3.6-0.7C29.1,9.8,28.1,9.6,26.8,9.4z"/>
	<path id="Shape_1_" class="st8" d="M70.3,7.5C70.5,2,66,2,63,2.9c-3,0.9-12.3-1.2-16.6,2.2c0,0-3.6,2.4-1.7,5.9
		c1.9,3.5,3.6,3,3.9,5c0.3,2,2.1,2.6,2.3,4.2c0.2,1.4,3.7,1.4,3.7,1.4c-3.4,3.1-3.8,6.5-3.8,8.7s-0.2,2.6-1.3,2.7c0,0-6.3,0-7.5,2.9
		s0.6,4.4,0.6,4.4c2.6,2.8,8.3-0.6,8.3-0.6c-7.3,5.1-4.3,12.5-0.1,12.9s7.7-1.9,8.6-6.1c0.8-4.2-4-5.2-4-5.2
		c0.5-0.6,1.8-2.6,3.7-3.8s3.3-1.9,2.9-4c-0.4-2.1-6.8-1.5-6.8-1.5c6.4-4.5,3.4-10.7,3.9-10.6c0.6,0.2,2.5,0.3,4.2,0.4
		c1.7,0.2,2.3-1.4,3.1-2.7c0.9-1.3-1.2-3.2-1.2-3.2S70.1,13,70.3,7.5z M52.8,47.2c-0.4,0-0.8-0.4-0.8-0.8c0-0.4,0.4-0.8,0.8-0.8
		c0.4,0,0.8,0.4,0.8,0.8S53.2,47.2,52.8,47.2z M60.5,12.5c-0.1,1-3.4,3.6-4.2,2.9c-0.8-0.7-3.5-3.6-1.8-3.7c0,0,4.3-0.8,5.7-0.5
		C60.2,11.2,60.6,11.5,60.5,12.5z"/>
	
		<ellipse id="Oval_2_" transform="matrix(2.599603e-02 -0.9997 0.9997 2.599603e-02 35.9714 60.1414)" class="st12" cx="48.8" cy="11.6" rx="1.2" ry="1.1"/>
	<path id="Path_6_" class="st12" d="M47.2,8.5c0,0,0-2.8,3-3.2c3.2-0.3,3.7,0.4,3.7,0.4s1.3,1.1-0.2,1.9s-3.8-0.5-4.4,0.8
		C48.6,9.7,47.4,10,47.2,8.5z"/>
</g>
</svg>
